inDegrees=yes
name=ik_S56_A05_T01
DataType=double
version=3
OpenSimVersion=4.3-2021-08-27-4bc7ad9
endheader
time	pelvis_tilt	pelvis_list	pelvis_rotation	pelvis_tx	pelvis_ty	pelvis_tz	hip_flexion_r	hip_adduction_r	hip_rotation_r	knee_angle_r	knee_angle_r_beta	ankle_angle_r	subtalar_angle_r	mtp_angle_r	hip_flexion_l	hip_adduction_l	hip_rotation_l	knee_angle_l	knee_angle_l_beta	ankle_angle_l	subtalar_angle_l	mtp_angle_l	lumbar_extension	lumbar_bending	lumbar_rotation	arm_flex_r	arm_add_r	arm_rot_r	elbow_flex_r	pro_sup_r	wrist_flex_r	wrist_dev_r	arm_flex_l	arm_add_l	arm_rot_l	elbow_flex_l	pro_sup_l	wrist_flex_l	wrist_dev_l
7.219999999999934	-6.589723140801396	-2.020493050027316	28.99390362964374	0	0.9399999999999999	0	45.12727680656764	-9.994265708415037	-10.25208682480364	54.43232162533706	0.9500232318666429	0	0	0	45.12727680656764	-9.994265708415037	-10.25208682480364	54.43232162533706	0.9500232318666429	0	0	0	-4.494017613306048	-2.608790872907218	7.889622099433601	41.23444439588273	-10.24363267673271	-6.065040997513519	65.90637045910486	115.713225991658	0	0	23.75462703219826	-6.001938625263485	-2.574157741975558	45.16288234810462	130.6619661900731	0	0
7.239999999999934	-6.605886060724819	-2.054455038548441	29.09183667189341	0	0.9399999999999999	0	45.12723065045246	-9.994272979075266	-10.25188186104388	54.43245936943941	0.9500256359547542	0	0	0	45.12723065045246	-9.994272979075266	-10.25188186104388	54.43245936943941	0.9500256359547542	0	0	0	-4.525654750108676	-2.628126138841771	7.87243308647933	41.44541989671941	-10.1051663151028	-5.732713207421273	65.46256973937672	115.4227612265391	0	0	23.91492366806627	-5.980429076866423	-2.493955551390828	45.0703667255988	130.7053840488034	0	0
7.259999999999933	-6.622537823693727	-2.093763357203535	29.20167607530725	0	0.9399999999999999	0	45.1271911191896	-9.994279188585457	-10.25170662229938	54.43257758480911	0.9500276992021819	0	0	0	45.1271911191896	-9.994279188585457	-10.25170662229938	54.43257758480911	0.9500276992021819	0	0	0	-4.559553308662058	-2.654338106030904	7.880202051984885	41.58657211532237	-9.930087252351244	-5.610527475689468	65.1103237260882	115.4728348823104	0	0	24.09447687498147	-5.959163264578542	-2.316725718890118	44.99110606433276	130.7005838309665	0	0
7.279999999999933	-6.636600198080601	-2.13589303129051	29.29728525972974	0	0.9399999999999999	0	45.12715247738416	-9.994285233864177	-10.25153576223246	54.43269350585275	0.9500297224060658	0	0	0	45.12715247738416	-9.994285233864177	-10.25153576223246	54.43269350585275	0.9500297224060658	0	0	0	-4.592563492828614	-2.684281845832218	7.88793134631482	41.70240751423276	-9.814159153478089	-5.583024070370044	64.8672852164318	115.3430534023748	0	0	24.27413598742632	-5.961114219844601	-2.129186310309716	44.88905757075324	130.6706481531938	0	0
7.299999999999932	-6.640264388972344	-2.156729626068295	29.35721040031871	0	0.9399999999999999	0	45.1271212283247	-9.994290011861894	-10.25139966147982	54.43278924355493	0.9500313933441871	0	0	0	45.1271212283247	-9.994290011861894	-10.25139966147982	54.43278924355493	0.9500313933441871	0	0	0	-4.606661566154927	-2.699515046422723	7.882360583912113	41.73188895876995	-9.746201662682196	-5.5745055277847	64.81447121373706	114.8261479672448	0	0	24.41281924802219	-5.964679754103273	-1.960721223152156	44.80675607074101	130.6158387867894	0	0
7.319999999999932	-6.644339506363992	-2.235249558942003	29.63344823650613	0	0.9399999999999999	0	45.12708403490257	-9.994295605606109	-10.25123938918241	54.43290478527936	0.9500334099277018	0	0	0	45.12708403490257	-9.994295605606109	-10.25123938918241	54.43290478527936	0.9500334099277018	0	0	0	-4.650756793156793	-2.764196583512111	7.885150087076958	41.79782478763151	-9.86866752895161	-5.869898402024204	64.84130778585246	114.0351161809721	0	0	24.61474431516244	-5.947126156766588	-1.560707932563203	44.73290073925887	130.5565231314049	0	0
7.339999999999931	-6.638480435542334	-2.237047544991659	29.63854926753368	0	0.9399999999999999	0	45.12705126191577	-9.994300733699298	-10.25109441377611	54.43300292336943	0.9500351227604952	1.077613842297402e-35	0	0	45.12705126191577	-9.994300733699298	-10.25109441377611	54.43300292336943	0.9500351227604952	1.077613842297402e-35	0	0	-4.645813338637803	-2.771199626482932	7.915727648600885	41.84958540991597	-10.00734854395191	-5.910462718161278	64.78179944699581	113.8955565570965	0	0	24.68230115561826	-5.920191145869052	-1.469166006829427	44.67484315537078	130.5032019782068	0	0
7.359999999999931	-6.621813145917555	-2.268408952183349	29.64270991846168	0	0.9399999999999999	0	45.12701945247334	-9.994305687646017	-10.25095412208356	54.43309854280203	0.9500367916344229	0	0	0	45.12701945247334	-9.994305687646017	-10.25095412208356	54.43309854280203	0.9500367916344229	0	0	0	-4.645215415901131	-2.811603332366128	7.96894416562152	41.98903531136323	-10.13612088752251	-6.122922218460725	65.01814594128888	113.5737195041372	0	0	24.76668211589267	-5.915802040367852	-1.366245203896427	44.62229099897306	130.4951316329667	0	0
7.379999999999931	-6.587976026186418	-2.274498815157426	29.59556206137521	0	0.9399999999999999	0	45.12698397882182	-9.994311229184442	-10.25079733890126	54.4332048252838	0.9500386466136669	0	0	0	45.12698397882182	-9.994311229184442	-10.25079733890126	54.4332048252838	0.9500386466136669	0	0	0	-4.616479445319167	-2.840661800708204	8.041390373118009	42.34473742510289	-10.42276135765237	-6.504357734395453	64.92236965787062	114.1472210058789	0	0	24.75905468177726	-5.897209303082387	-1.354605188749946	44.58708250381358	130.4904602741191	0	0
7.39999999999993	-6.540785631474675	-2.291270283472652	29.57739936579519	0	0.9399999999999999	0	45.12695160766928	-9.994316221802125	-10.25065543403229	54.43330284427842	0.9500403573678526	0	0	0	45.12695160766928	-9.994316221802125	-10.25065543403229	54.43330284427842	0.9500403573678526	0	0	0	-4.584387411220892	-2.876768273679728	8.024702197926894	42.29840360895023	-10.34104186074573	-6.544594981335567	65.05214844722367	114.8065656586499	0	0	24.73022183539895	-5.920261659193278	-1.441494258958299	44.54251897824923	130.5367287542206	0	0
7.41999999999993	-6.498404744300705	-2.318081782642315	29.53152167400651	0	0.9399999999999999	0	45.12691370949123	-9.994322126089783	-10.25048819527856	54.4334165463957	0.9500423418441658	0	0	0	45.12691370949123	-9.994322126089783	-10.25048819527856	54.4334165463957	0.9500423418441658	0	0	0	-4.560879862451118	-2.920578941698036	8.023044749921668	42.50393691923077	-10.35015842437366	-6.650193836152176	65.19367011012859	115.377497676245	0	0	24.70962841446024	-5.958090442440187	-1.524139651651719	44.56021172006163	130.5383614989147	0	0
7.439999999999929	-6.451335416361459	-2.322947312967954	29.50642034278657	0	0.9399999999999999	0	45.12687936086623	-9.99432743131192	-10.25033742855942	54.43352024358982	0.9500441517016281	0	0	0	45.12687936086623	-9.99432743131192	-10.25033742855942	54.43352024358982	0.9500441517016281	0	0	0	-4.524089894273909	-2.942987378391425	7.97370730131351	42.43536708635241	-10.21521208848599	-6.595165185488232	65.42956894411535	115.7641604683197	0	0	24.6710888216124	-5.980520324173598	-1.648146536243324	44.53503712516856	130.520817425088	0	0
7.459999999999929	-6.412997247659101	-2.341990366380906	29.45788707871944	0	0.9399999999999999	0	45.12683878492972	-9.994333743244644	-10.25015851581939	54.43364203100999	0.9500462772930975	0	0	0	45.12683878492972	-9.994333743244644	-10.25015851581939	54.43364203100999	0.9500462772930975	0	0	0	-4.500623853960827	-2.976914089632417	7.958720278474103	43.02178581102226	-10.38158606520819	-6.451020980909126	65.19576320815851	115.8671320372204	0	0	24.6311928405913	-6.081166293443793	-1.67965824698404	44.5491689931911	130.5262877498475	0	0
7.479999999999928	-6.393488803354961	-2.350978242310243	29.49113040910885	0	0.9399999999999999	0	45.1268040847277	-9.99433915162626	-10.25000529256979	54.43374591835409	0.9500480904693034	0	0	0	45.1268040847277	-9.99433915162626	-10.25000529256979	54.43374591835409	0.9500480904693034	0	0	0	-4.490623957854396	-2.987439558465053	7.891683944607352	43.39212905779309	-10.33586966840726	-6.008747633700265	65.28075797776599	115.9793009127506	0	0	24.63807389547031	-6.023248933172472	-1.812008205767582	44.55850178621638	130.5103726821839	0	0
